<svg viewBox="0 0 140 140" width="224" height="224" xmlns="http://www.w3.org/2000/svg">
  <rect x="3" y="3" width="134" height="134" rx="7" fill="none" stroke="#8B1A10" stroke-width="4"/>
  <rect x="10" y="10" width="120" height="120" rx="4" fill="none" stroke="#E34234" stroke-width="1"/>
  <text x="17" y="8.5" font-family="monospace" font-size="6.5" fill="#FFB3A3" opacity="0.75">&lt;html&gt;</text>
  <text x="63" y="8.5" font-family="monospace" font-size="6.5" fill="#FF8B7B" opacity="0.55">&lt;head&gt;</text>
  <text x="104" y="8.5" font-family="monospace" font-size="6.5" fill="#FF8B7B" opacity="0.4">&lt;body&gt;</text>
  <text x="17" y="135.5" font-family="monospace" font-size="6.5" fill="#FFB3A3" opacity="0.75">&lt;/html&gt;</text>
  <text x="60" y="135.5" font-family="monospace" font-size="6.5" fill="#FF8B7B" opacity="0.55">&lt;/head&gt;</text>
  <text x="101" y="135.5" font-family="monospace" font-size="6.5" fill="#FF8B7B" opacity="0.4">&lt;/body&gt;</text>
  <g stroke="#E34234" stroke-width="1.5" stroke-linecap="round" opacity="0.3">
    <line x1="3" y1="30" x2="10" y2="30"/>
    <line x1="3" y1="40" x2="10" y2="40"/>
    <line x1="3" y1="50" x2="10" y2="50"/>
    <line x1="3" y1="60" x2="10" y2="60"/>
    <line x1="3" y1="80" x2="10" y2="80"/>
    <line x1="3" y1="90" x2="10" y2="90"/>
    <line x1="3" y1="100" x2="10" y2="100"/>
    <line x1="3" y1="110" x2="10" y2="110"/>
    <line x1="137" y1="30" x2="130" y2="30"/>
    <line x1="137" y1="40" x2="130" y2="40"/>
    <line x1="137" y1="50" x2="130" y2="50"/>
    <line x1="137" y1="60" x2="130" y2="60"/>
    <line x1="137" y1="80" x2="130" y2="80"/>
    <line x1="137" y1="90" x2="130" y2="90"/>
    <line x1="137" y1="100" x2="130" y2="100"/>
    <line x1="137" y1="110" x2="130" y2="110"/>
  </g>
  <circle cx="10" cy="10" r="2" fill="#E34234" opacity="0.4"/>
  <circle cx="130" cy="10" r="2" fill="#E34234" opacity="0.4"/>
  <circle cx="10" cy="130" r="2" fill="#E34234" opacity="0.4"/>
  <circle cx="130" cy="130" r="2" fill="#E34234" opacity="0.4"/>
</svg>
